<?xml version="1.0" encoding="utf-8"?>
<!-- Generator: Adobe Illustrator 25.0.0, SVG Export Plug-In . SVG Version: 6.00 Build 0)  -->
<svg version="1.1" id="svg" xmlns="http://www.w3.org/2000/svg" xmlns:xlink="http://www.w3.org/1999/xlink" x="0px" y="0px"
	 viewBox="0 0 40 40" style="enable-background:new 0 0 40 40;" xml:space="preserve">

<path id="path0" fill="#27AFD5"  d="M19.7,1.9c-0.5,0.2-0.5,0.2-0.5,2.6c0.3,3.6-0.6,0.9-5.2,3.9c-0.3-0.2-1.4-1.1-2.1-1.8
	c-1.4-1.2-1.7-1.3-2.2-0.8C9.1,6.4,9.5,7,12,9.1c0.6,0.5,0.6,0.5,0.2,1c-0.8,1-1.8,3.1-1.8,3.9c0,0.3,0,0.3-2.2,0.3
	c-1.7,0-2.1,0-2.2,0.1c-0.4,0.3-0.3,1.1,0.1,1.5C6.2,16.1,7.3,16,7.5,16c2.9,0.1,2.7-0.3,2.8,0.7c0.3,4.6,2.6,4.4,0.8,5.4
	c-2.8,2.1-2.9,2.3-2.2,3c0.6,1,3.1-1.6,3.9-2c0.1,0,0.3,0.1,0.5,0.3c1,0.9,1.5,1.3,1.5,1.4c0.6,4-2,3.4,1.7,3.5
	c0.1,0,0.2-0.1,0.2-0.2l0-1.8c0-1.3,0-2,0-2.1c-11.1-7.7-1-21.7,8.9-13.8c4.1,4.4,2.7,9.7-2.6,13.9c0,0.9,0,2.8,0,3.8
	c0,0.4,0.9,0.2,1.1,0.2c0.8,0,1.1,0,1.1-0.1c-0.3-0.6-0.3-2.2-0.3-3.4c0-0.1,0.2-0.3,0.3-0.3c0.2-0.2,1.4-1.3,1.6-1.4
	c0.7,0.1,2.4,1.8,3.2,2.2c0.6,0.2,1.4-0.5,1.2-1.1c-0.1-0.3-1.8-1.6-2.7-2.3c-0.6-0.4-0.6-0.4-0.2-1c0.8-1.3,1.2-2.6,1.3-4.3
	c0-0.3,0.1-0.6,0.1-0.6C30,16.1,33,16,33.7,16c0.6-0.2,0.7-1.3,0.3-1.6c-0.1-0.1-0.2-0.1-2.2-0.1l-1.9,0c-0.2,0-0.2-0.2-0.3-0.4
	c-0.3-1.2-0.9-2.7-1.7-3.7c-0.4-0.6-0.5-0.4,1.1-1.9c1.9-1.7,2-2,1.2-2.6c-0.5-0.3-0.5-0.3-2.2,1.1c-1.2,1-1.9,1.6-2,1.6
	c-1.2-0.8-3-1.7-4.2-1.8c-0.3-0.1-0.7,0-0.7-0.3C20.8,4.2,21.7,1.5,19.7,1.9"/>
<path id="path2" fill="#0C384B"   d="M19.4,12.8c-3.6,0.7-3.7,5.7-0.2,6.8c0,2.4,0,7.2,0,9.6c-1.1,0-3.4,0-4.5,0.1c0,0.4,0,1.2,0,1.6
	c1.7,0.1,10.7,0.1,11,0c0.1-0.1,0-1.4,0-1.5c0.1-0.1-3.8-0.1-4.5-0.1c0.1-1.7-0.3-10.6,0.2-9.7C25.1,18.1,23.6,12,19.4,12.8
	 M14.6,32.4v0.8c2.7,0,8.3,0,11,0c0-0.4,0-1.2,0-1.5c-2.7,0-8.3,0-11,0V32.4 M17.3,34.1c0,0.2,0,1.2,0,1.5c0.4,0,1.4,0,1.8,0
	c0,0.6,0,1.9,0,2.5c0.4,0,1.4,0,1.8,0c0-0.6,0-1.8,0.1-2.5c0.4,0,1.3,0,1.8,0c0-0.4,0-1.2,0-1.6c-1.3,0-4.1,0-5.4,0L17.3,34.1"/>
</svg>
